<svg width="379" height="74" viewBox="0 0 379 74" fill="none" xmlns="http://www.w3.org/2000/svg">
<g filter="url(#filter0_d_239_519)">
<path d="M23.2 43.744L32.16 16.544H41.696L28.576 52H17.696L4.64 16.544H14.24L23.2 43.744ZM44.4245 34.144C44.4245 30.56 45.1285 27.3813 46.5365 24.608C47.9872 21.8347 49.9285 19.7013 52.3605 18.208C54.8352 16.7147 57.5872 15.968 60.6165 15.968C63.2618 15.968 65.5658 16.5013 67.5285 17.568C69.5338 18.6347 71.1338 19.9787 72.3285 21.6V16.544H81.3525V52H72.3285V46.816C71.1765 48.48 69.5765 49.8667 67.5285 50.976C65.5232 52.0427 63.1978 52.576 60.5525 52.576C57.5658 52.576 54.8352 51.808 52.3605 50.272C49.9285 48.736 47.9872 46.5813 46.5365 43.808C45.1285 40.992 44.4245 37.7707 44.4245 34.144ZM72.3285 34.272C72.3285 32.096 71.9018 30.24 71.0485 28.704C70.1952 27.1253 69.0432 25.9307 67.5925 25.12C66.1418 24.2667 64.5845 23.84 62.9205 23.84C61.2565 23.84 59.7205 24.2453 58.3125 25.056C56.9045 25.8667 55.7525 27.0613 54.8565 28.64C54.0032 30.176 53.5765 32.0107 53.5765 34.144C53.5765 36.2773 54.0032 38.1547 54.8565 39.776C55.7525 41.3547 56.9045 42.5707 58.3125 43.424C59.7632 44.2773 61.2992 44.704 62.9205 44.704C64.5845 44.704 66.1418 44.2987 67.5925 43.488C69.0432 42.6347 70.1952 41.44 71.0485 39.904C71.9018 38.3253 72.3285 36.448 72.3285 34.272ZM104.888 43.744L113.848 16.544H123.384L110.264 52H99.3835L86.3275 16.544H95.9275L104.888 43.744ZM161.376 33.504C161.376 34.784 161.291 35.936 161.12 36.96H135.2C135.413 39.52 136.309 41.5253 137.888 42.976C139.467 44.4267 141.408 45.152 143.712 45.152C147.04 45.152 149.408 43.7227 150.816 40.864H160.48C159.456 44.2773 157.493 47.0933 154.592 49.312C151.691 51.488 148.128 52.576 143.904 52.576C140.491 52.576 137.419 51.8293 134.688 50.336C132 48.8 129.888 46.6453 128.352 43.872C126.859 41.0987 126.112 37.8987 126.112 34.272C126.112 30.6027 126.859 27.3813 128.352 24.608C129.845 21.8347 131.936 19.7013 134.624 18.208C137.312 16.7147 140.405 15.968 143.904 15.968C147.275 15.968 150.283 16.6933 152.928 18.144C155.616 19.5947 157.685 21.664 159.136 24.352C160.629 26.9973 161.376 30.048 161.376 33.504ZM152.096 30.944C152.053 28.64 151.221 26.8053 149.6 25.44C147.979 24.032 145.995 23.328 143.648 23.328C141.429 23.328 139.552 24.0107 138.016 25.376C136.523 26.6987 135.605 28.5547 135.264 30.944H152.096ZM174.252 47.264H189.868V52H168.428V7.392H174.252V47.264ZM228.053 33.12C228.053 34.2293 227.989 35.4027 227.861 36.64H199.829C200.042 40.096 201.216 42.8053 203.349 44.768C205.525 46.688 208.149 47.648 211.221 47.648C213.738 47.648 215.829 47.072 217.493 45.92C219.2 44.7253 220.394 43.1467 221.077 41.184H227.349C226.41 44.5547 224.533 47.3067 221.717 49.44C218.901 51.5307 215.402 52.576 211.221 52.576C207.893 52.576 204.906 51.8293 202.261 50.336C199.658 48.8427 197.61 46.7307 196.117 44C194.624 41.2267 193.877 38.0267 193.877 34.4C193.877 30.7733 194.602 27.5947 196.053 24.864C197.504 22.1333 199.53 20.0427 202.133 18.592C204.778 17.0987 207.808 16.352 211.221 16.352C214.549 16.352 217.493 17.0773 220.053 18.528C222.613 19.9787 224.576 21.984 225.941 24.544C227.349 27.0613 228.053 29.92 228.053 33.12ZM222.037 31.904C222.037 29.6853 221.546 27.7867 220.565 26.208C219.584 24.5867 218.24 23.3707 216.533 22.56C214.869 21.7067 213.013 21.28 210.965 21.28C208.021 21.28 205.504 22.2187 203.413 24.096C201.365 25.9733 200.192 28.576 199.893 31.904H222.037ZM252.829 16.288C257.095 16.288 260.551 17.5893 263.197 20.192C265.842 22.752 267.165 26.464 267.165 31.328V52H261.405V32.16C261.405 28.6613 260.53 25.9947 258.781 24.16C257.031 22.2827 254.642 21.344 251.613 21.344C248.541 21.344 246.087 22.304 244.253 24.224C242.461 26.144 241.565 28.9387 241.565 32.608V52H235.741V16.928H241.565V21.92C242.717 20.128 244.274 18.7413 246.237 17.76C248.242 16.7787 250.439 16.288 252.829 16.288ZM291.142 16.352C294.171 16.352 296.817 17.0133 299.078 18.336C301.382 19.6587 303.089 21.3227 304.198 23.328V16.928H310.086V52.768C310.086 55.968 309.403 58.8053 308.038 61.28C306.673 63.7973 304.71 65.76 302.15 67.168C299.633 68.576 296.689 69.28 293.318 69.28C288.71 69.28 284.87 68.192 281.798 66.016C278.726 63.84 276.913 60.8747 276.358 57.12H282.118C282.758 59.2533 284.081 60.96 286.086 62.24C288.091 63.5627 290.502 64.224 293.318 64.224C296.518 64.224 299.121 63.2213 301.126 61.216C303.174 59.2107 304.198 56.3947 304.198 52.768V45.408C303.046 47.456 301.339 49.1627 299.078 50.528C296.817 51.8933 294.171 52.576 291.142 52.576C288.027 52.576 285.19 51.808 282.63 50.272C280.113 48.736 278.129 46.5813 276.678 43.808C275.227 41.0347 274.502 37.8773 274.502 34.336C274.502 30.752 275.227 27.616 276.678 24.928C278.129 22.1973 280.113 20.0853 282.63 18.592C285.19 17.0987 288.027 16.352 291.142 16.352ZM304.198 34.4C304.198 31.7547 303.665 29.4507 302.598 27.488C301.531 25.5253 300.081 24.032 298.246 23.008C296.454 21.9413 294.47 21.408 292.294 21.408C290.118 21.408 288.134 21.92 286.342 22.944C284.55 23.968 283.121 25.4613 282.054 27.424C280.987 29.3867 280.454 31.6907 280.454 34.336C280.454 37.024 280.987 39.3707 282.054 41.376C283.121 43.3387 284.55 44.8533 286.342 45.92C288.134 46.944 290.118 47.456 292.294 47.456C294.47 47.456 296.454 46.944 298.246 45.92C300.081 44.8533 301.531 43.3387 302.598 41.376C303.665 39.3707 304.198 37.0453 304.198 34.4ZM327.032 21.728V42.4C327.032 44.1067 327.395 45.3227 328.12 46.048C328.845 46.7307 330.104 47.072 331.896 47.072H336.184V52H330.936C327.693 52 325.261 51.2533 323.64 49.76C322.019 48.2667 321.208 45.8133 321.208 42.4V21.728H316.664V16.928H321.208V8.096H327.032V16.928H336.184V21.728H327.032ZM360.649 16.288C363.294 16.288 365.683 16.864 367.817 18.016C369.95 19.1253 371.614 20.8107 372.809 23.072C374.046 25.3333 374.665 28.0853 374.665 31.328V52H368.905V32.16C368.905 28.6613 368.03 25.9947 366.281 24.16C364.531 22.2827 362.142 21.344 359.113 21.344C356.041 21.344 353.587 22.304 351.753 24.224C349.961 26.144 349.065 28.9387 349.065 32.608V52H343.241V4.64H349.065V21.92C350.217 20.128 351.795 18.7413 353.801 17.76C355.849 16.7787 358.131 16.288 360.649 16.288Z" fill="#383838"/>
</g>
<defs>
<filter id="filter0_d_239_519" x="0.640137" y="0.640015" width="378.024" height="72.64" filterUnits="userSpaceOnUse" color-interpolation-filters="sRGB">
<feFlood flood-opacity="0" result="BackgroundImageFix"/>
<feColorMatrix in="SourceAlpha" type="matrix" values="0 0 0 0 0 0 0 0 0 0 0 0 0 0 0 0 0 0 127 0" result="hardAlpha"/>
<feOffset/>
<feGaussianBlur stdDeviation="2"/>
<feComposite in2="hardAlpha" operator="out"/>
<feColorMatrix type="matrix" values="0 0 0 0 0 0 0 0 0 0 0 0 0 0 0 0 0 0 0.5 0"/>
<feBlend mode="normal" in2="BackgroundImageFix" result="effect1_dropShadow_239_519"/>
<feBlend mode="normal" in="SourceGraphic" in2="effect1_dropShadow_239_519" result="shape"/>
</filter>
</defs>
</svg>
