<svg width="394" height="236" viewBox="0 0 394 236" fill="none" xmlns="http://www.w3.org/2000/svg">
<path fill-rule="evenodd" clip-rule="evenodd" d="M134.252 44.7963C149.915 45.0264 146.795 65.4188 149.209 74.5148C150.304 85.6583 151.398 96.8027 152.493 107.948C153.222 116.542 153.952 125.137 154.682 133.733C156.262 146.843 157.843 159.954 159.424 173.067L160.154 172.848C163.194 147.794 166.234 122.737 169.274 97.6778C171.393 90.3341 170.635 74.7771 180.948 73.2037C194.142 71.1896 194.598 85.0704 196.27 90.9037C198.338 104.669 200.405 118.436 202.472 132.204C204.319 138.606 202.52 146.525 207.215 151.433L207.944 151.215L211.593 137.667C214.385 128.739 213.702 119.505 217.794 111.882C219.73 108.276 222.849 102.778 232.022 103.796C252.056 106.019 243.649 128.082 253.182 136.793C261.032 136.306 262.628 117.7 267.774 113.63C269.744 112.071 273.064 111.027 277.624 111.007C294.802 110.933 293.895 123.105 300.243 129.582L302.796 129.8C311.442 126.095 313.8 115.025 331.617 118.437C337.84 119.629 340.317 122.059 348.398 122.807C358.066 123.703 370.78 121.496 377.219 124.119C378.251 126.184 378.495 128.203 375.395 129.363C371.67 130.755 343.347 129.947 339.278 129.144L332.711 126.741C330.678 125.936 327.449 124.837 324.685 125.211C319.042 126.763 317.512 132.362 312.646 134.607C289.361 145.357 286.619 123.518 278.719 118L276.53 118.437C272.762 126.12 269.148 151.335 246.98 142.911C236.173 138.805 236.961 126.026 233.846 117.344C233.012 115.02 233.165 112.858 230.928 111.444L230.198 111.663C224.624 123.408 225.373 140.06 219.254 152.089C217.402 155.729 214.421 162.111 204.296 160.393C194.15 158.67 194.373 148.343 192.257 141.6C189.339 123.538 186.42 105.474 183.502 87.4074H183.137V87.8445C178.368 93.8006 181.131 105.706 179.124 113.193C176.814 131.983 174.503 150.776 172.193 169.57C170.445 175.746 170.886 192.967 157.965 191.204C146.625 189.656 148.453 170.106 146.291 161.922C143.98 137.524 141.67 113.122 139.359 88.7185C137.228 80.83 140.101 68.246 135.711 61.8408L135.346 62.2778C131.247 68.237 134.278 76.6013 132.428 83.4741C130.604 98.4776 128.78 113.483 126.956 128.489C124.725 136.336 126.458 148.782 117.47 152.526C110.584 155.395 103.924 151.484 101.419 148.811C93.3926 140.247 94.3313 125.452 88.6501 115.815C77.0201 118.365 84.3737 139.707 61.2889 136.793C52.9201 135.736 51.1949 130.699 43.7778 129.8C34.8523 128.718 16.891 132.279 15.6871 126.741C14.6576 121.999 24.3055 122.807 31.3741 122.807C39.5485 122.807 47.8802 122.496 52.8982 124.337C57.326 125.962 58.6258 129.338 64.9371 129.8L66.0315 129.363C69.6242 123.516 77.4502 102.048 95.2167 109.696C107.271 114.886 104.41 135.29 110.904 144.441L111.633 144.222L115.282 129.363C116.133 122.88 116.984 116.398 117.835 109.915C119.295 96.1495 120.754 82.3828 122.213 68.6148C124.784 59.0774 122.455 48.7498 134.252 44.7963Z" fill="#383838" fill-opacity="0.9"/>
</svg>
